<svg xmlns="http://www.w3.org/2000/svg" viewBox="0 0 400 120" fill="none">
  <!-- Sun rays -->
  <g transform="translate(50, 10)">
    <line x1="0" y1="20" x2="0" y2="8" stroke="#F5A623" stroke-width="4" stroke-linecap="round"/>
    <line x1="-15" y1="25" x2="-22" y2="15" stroke="#F5A623" stroke-width="4" stroke-linecap="round"/>
    <line x1="15" y1="25" x2="22" y2="15" stroke="#F5A623" stroke-width="4" stroke-linecap="round"/>
    <line x1="-26" y1="36" x2="-36" y2="30" stroke="#F5A623" stroke-width="4" stroke-linecap="round"/>
    <line x1="26" y1="36" x2="36" y2="30" stroke="#F5A623" stroke-width="4" stroke-linecap="round"/>
  </g>
  <!-- Shield -->
  <path d="M50 30 C50 30 15 42 15 42 C15 42 15 75 15 80 C15 100 50 115 50 115 C50 115 85 100 85 80 C85 75 85 42 85 42 C85 42 50 30 50 30Z" fill="#7BC67E" stroke="#5AA55D" stroke-width="3"/>
  <!-- Shield highlight -->
  <path d="M50 30 C50 30 15 42 15 42 C15 42 15 75 15 80 C15 100 50 115 50 115 L50 30Z" fill="#8FD492" stroke="none"/>
  <!-- Checkmark -->
  <polyline points="33,72 45,84 67,58" fill="none" stroke="#2D5A2E" stroke-width="6" stroke-linecap="round" stroke-linejoin="round"/>
  <!-- Text -->
  <text x="110" y="58" font-family="DM Sans, system-ui, sans-serif" font-size="42" font-weight="400" fill="#333333">Solar</text>
  <text x="110" y="105" font-family="DM Sans, system-ui, sans-serif" font-size="42" font-weight="400" fill="#333333">Grade</text>
</svg>
